<?xml version="1.0" encoding="utf-8"?>
<!-- Generator: Adobe Illustrator 18.1.0, SVG Export Plug-In . SVG Version: 6.00 Build 0)  -->
<svg version="1.1" xmlns="http://www.w3.org/2000/svg" xmlns:xlink="http://www.w3.org/1999/xlink" x="0px" y="0px" width="50px"
	 height="40px" viewBox="0 0 50 40" enable-background="new 0 0 50 40" xml:space="preserve">
<g id="Layer_1">
</g>
<g id="Layer_2">
</g>
<g id="Layer_3">
</g>
<g id="Layer_4">
	<g>
		<path fill="#7C99C2" d="M45,40H5c-2.8,0-5-2.2-5-5V5c0-2.8,2.2-5,5-5h40c2.8,0,5,2.2,5,5v30C50,37.8,47.8,40,45,40z"/>
		<path fill="#FFFFFF" d="M44.4,15.4C42.8,8,36.2,2.4,28.3,2.4c-5.4,0-10.2,2.6-13.2,6.7c-0.9-0.4-1.9-0.6-2.9-0.6
			c-4.1,0-7.5,3.4-7.5,7.5c0,0.2,0,0.4,0,0.6c0,0,0,0,0,0c-2.1,0-3.9,1.2-4.7,2.9v2.1v2.6v9V35c0,2.8,2.2,5,5,5h40c2.8,0,5-2.2,5-5
			v-1.9v-0.1V21.5V20C48.7,18,46.7,16.3,44.4,15.4z"/>
		<path fill="#6EAD26" d="M26,30.5c0-4.2,3-7.6,7-8.4V20l-7-7H15.5c-0.8,0-1.5,0.7-1.5,1.5v20.9c0,0.8,0.7,1.5,1.5,1.5H29
			C27.2,35.4,26,33.1,26,30.5z"/>
		<rect x="17" y="16" fill="#DBEAC9" width="4" height="2"/>
		<rect x="20" y="20" fill="#DBEAC9" width="1" height="11"/>
		<path fill="#DBEAC9" d="M26,31h-8V20h11v4c0.3-0.3,0.6-0.5,1-0.7V19H17v13h9.1C26.1,31.7,26,31.3,26,31z"/>
		<polygon fill="#B7D693" points="26,20 33,20 26,13 		"/>
		<rect x="17" y="34" fill="#DBEAC9" width="7" height="1"/>
		<circle fill="#3C79DD" cx="34.5" cy="30.5" r="7.5"/>
		<text transform="matrix(1 0 0 1 30 34)" fill="#FFFFFF" font-family="'CenturyGothic'" font-size="14">e</text>
		<path opacity="0.12" fill="#255599" d="M33,22.1V20h-7l3.9,3.4C30.8,22.8,31.9,22.3,33,22.1z"/>
	</g>
</g>
</svg>
